# xmcd CD database file
# Copyright (C) 1993-1997  Ti Kan
#
# Track frame offsets:
#	150
#	17820
#	33172
#	58630
#	70150
#	85857
#	107345
#	125682
#	151150
#	166110
#	184462
#	215775
#	238612
#
# Disc length: 3453 seconds
#
# Revision: 1
# Processed by: cddbd v1.4b41PL1 Copyright (c) Steve Scherf et al.
# Submitted via: xmcd 2.1 PL2
#
DISCID=a90d7b0d
DTITLE=Oscar Klein, Romano Mussolini, Karsten Gnettner and Charlie Antoli
DTITLE=ni - Timeless Blues
DYEAR=1900
DGENRE=
TTITLE0=George's Chords
TTITLE1=Remembering Cootie
TTITLE2=Exactly Like You
TTITLE3=Lonely Harp
TTITLE4=Franco Nero
TTITLE5=Timeless Blues
TTITLE6=Cute
TTITLE7=With Hot Lips and Sticks
TTITLE8=Dein Ist Mein Ganzes Herz
TTITLE9=New Orleans Memories
TTITLE10=Jessica
TTITLE11=Italian Blues
TTITLE12=There Is No Greater Love
EXTD=
EXTT0=
EXTT1=
EXTT2=
EXTT3=
EXTT4=
EXTT5=
EXTT6=
EXTT7=
EXTT8=
EXTT9=
EXTT10=
EXTT11=
EXTT12=
PLAYORDER=
